# xmcd
#
# Track frame offsets: 
#        150
#        23425
#        41839
#        69385
#        84760
#        98930
#
# Disc length: 2339 seconds
#
# Revision: 1
# Processed by: cddbd v1.5.2PL0 Copyright (c) Steve Scherf et al.
# Submitted via: ExactAudioCopy v0.99pb4
#
DISCID=3c092106
DTITLE=Bananas At Large - Da Turdy Point Buck
DYEAR=1990
DGENRE=Comedy
TTITLE0=Da Turdy Point Buck
TTITLE1=Spring Fishin'
TTITLE2=I Hate Cockroaches
TTITLE3=Grandma's Revenge
TTITLE4=Deer Widows Blues
TTITLE5=Da Farm News Report and Vee Com Froom Veeskonsin
EXTD=
EXTT0=
EXTT1=
EXTT2=
EXTT3=
EXTT4=
EXTT5=
PLAYORDER=
